<svg width="825" height="180" viewBox="0 0 825 180" fill="none" xmlns="http://www.w3.org/2000/svg">
<mask id="path-1-outside-1_460_2220" maskUnits="userSpaceOnUse" x="334.55" y="135.389" width="489" height="45" fill="black">
<rect fill="white" x="334.55" y="135.389" width="489" height="45"/>
<path d="M335.807 152.896C336.32 150.025 337.431 147.45 339.141 145.17C340.88 142.862 342.989 141.061 345.469 139.766C347.977 138.472 350.599 137.824 353.335 137.824C356.584 137.824 359.277 138.598 361.415 140.146C363.581 141.694 364.977 143.889 365.604 146.732H360.944C360.431 145.015 359.477 143.692 358.08 142.764C356.684 141.807 354.902 141.328 352.736 141.328C350.656 141.328 348.703 141.807 346.879 142.764C345.084 143.692 343.559 145.043 342.305 146.816C341.051 148.561 340.21 150.588 339.783 152.896C339.64 153.627 339.569 154.472 339.569 155.428C339.569 158.187 340.381 160.382 342.006 162.014C343.659 163.618 345.853 164.42 348.589 164.42C350.756 164.42 352.708 163.956 354.446 163.027C356.185 162.099 357.61 160.776 358.721 159.059H363.381C361.757 161.873 359.591 164.055 356.883 165.602C354.204 167.122 351.24 167.882 347.991 167.882C345.568 167.882 343.417 167.39 341.536 166.405C339.655 165.391 338.187 163.984 337.132 162.183C336.078 160.354 335.55 158.257 335.55 155.893C335.55 154.908 335.636 153.909 335.807 152.896Z"/>
<path d="M377.936 168.009C375.97 168.009 374.231 167.615 372.721 166.827C371.239 166.011 370.084 164.885 369.258 163.449C368.431 161.986 368.018 160.297 368.018 158.384C368.018 155.766 368.631 153.374 369.856 151.207C371.082 149.012 372.763 147.281 374.901 146.014C377.067 144.748 379.475 144.115 382.126 144.115C384.092 144.115 385.831 144.523 387.342 145.339C388.881 146.127 390.063 147.253 390.89 148.716C391.745 150.151 392.172 151.84 392.172 153.782C392.172 156.399 391.545 158.792 390.291 160.959C389.037 163.126 387.327 164.843 385.161 166.109C382.995 167.376 380.587 168.009 377.936 168.009ZM378.407 164.758C380.259 164.758 381.926 164.266 383.408 163.281C384.89 162.267 386.045 160.945 386.871 159.312C387.726 157.652 388.154 155.879 388.154 153.993C388.154 151.854 387.527 150.222 386.273 149.096C385.019 147.942 383.451 147.365 381.57 147.365C379.718 147.365 378.065 147.872 376.611 148.885C375.157 149.87 374.032 151.193 373.234 152.853C372.436 154.514 372.037 156.301 372.037 158.215C372.037 160.297 372.635 161.916 373.832 163.07C375.029 164.195 376.554 164.758 378.407 164.758Z"/>
<path d="M410.626 144.072C413.048 144.072 414.986 144.72 416.44 146.014C417.893 147.281 418.62 149.138 418.62 151.587C418.62 152.487 418.549 153.29 418.406 153.993L415.97 167.629H412.122L414.473 154.542C414.587 153.951 414.644 153.332 414.644 152.684C414.644 150.968 414.16 149.659 413.191 148.758C412.25 147.858 410.925 147.407 409.215 147.407C407.163 147.407 405.41 148.041 403.957 149.307C402.532 150.574 401.605 152.417 401.178 154.837V154.753L398.869 167.629H394.979L399.126 144.495H403.016L402.418 147.83C403.387 146.619 404.598 145.691 406.051 145.043C407.505 144.396 409.03 144.072 410.626 144.072Z"/>
<path d="M436.646 144.115C438.613 144.115 440.308 144.495 441.733 145.254C443.187 145.986 444.284 147.028 445.025 148.378C445.795 149.701 446.179 151.221 446.179 152.938C446.179 153.529 446.108 154.246 445.966 155.091C445.852 155.822 445.666 156.582 445.41 157.37H426.685C426.628 157.933 426.6 158.341 426.6 158.595C426.6 160.537 427.184 162.056 428.352 163.154C429.549 164.223 431.103 164.758 433.012 164.758C434.694 164.758 436.162 164.378 437.416 163.618C438.698 162.83 439.667 161.789 440.323 160.494H444.512C443.486 162.718 441.904 164.533 439.767 165.94C437.658 167.319 435.207 168.009 432.414 168.009C429.478 168.009 427.113 167.179 425.317 165.518C423.55 163.829 422.666 161.536 422.666 158.637C422.666 157.821 422.752 156.948 422.923 156.019C423.35 153.627 424.22 151.531 425.531 149.729C426.842 147.928 428.452 146.549 430.362 145.592C432.3 144.607 434.394 144.115 436.646 144.115ZM442.033 154.584C442.118 154.021 442.161 153.501 442.161 153.022C442.161 151.221 441.577 149.828 440.408 148.843C439.268 147.858 437.772 147.365 435.919 147.365C433.924 147.365 432.114 148.013 430.49 149.307C428.865 150.574 427.768 152.333 427.198 154.584H442.033Z"/>
<path d="M449.434 156.019C449.861 153.627 450.716 151.545 451.999 149.772C453.31 147.97 454.92 146.577 456.829 145.592C458.739 144.607 460.805 144.115 463.028 144.115C465.907 144.115 468.144 144.804 469.74 146.183C471.365 147.562 472.263 149.476 472.434 151.925H468.244C468.101 150.517 467.517 149.406 466.491 148.59C465.494 147.773 464.14 147.365 462.43 147.365C460.207 147.365 458.269 148.125 456.616 149.645C454.991 151.137 453.937 153.261 453.452 156.019C453.31 156.948 453.238 157.722 453.238 158.341C453.238 160.396 453.794 161.986 454.906 163.112C456.017 164.209 457.499 164.758 459.352 164.758C461.062 164.758 462.544 164.364 463.798 163.576C465.08 162.788 466.064 161.662 466.748 160.199H470.937C469.911 162.563 468.329 164.463 466.192 165.898C464.054 167.305 461.575 168.009 458.753 168.009C455.818 168.009 453.481 167.179 451.742 165.518C450.032 163.858 449.177 161.592 449.177 158.721C449.177 157.849 449.263 156.948 449.434 156.019Z"/>
<path d="M480.703 161.296C480.617 161.719 480.574 162.084 480.574 162.394C480.574 163.098 480.788 163.604 481.216 163.914C481.672 164.223 482.398 164.378 483.396 164.378H486.26L485.662 167.629H482.156C480.304 167.629 478.907 167.277 477.966 166.573C477.054 165.87 476.598 164.716 476.598 163.112C476.598 162.493 476.655 161.887 476.769 161.296L479.206 147.661H476.214L476.769 144.495H479.805L480.831 138.669H484.764L483.738 144.495H489.809L489.253 147.661H483.139L480.703 161.296Z"/>
<path d="M490.974 155.977C491.401 153.613 492.256 151.545 493.539 149.772C494.85 147.97 496.432 146.577 498.284 145.592C500.165 144.607 502.16 144.115 504.269 144.115C506.321 144.115 508.017 144.551 509.357 145.423C510.696 146.296 511.623 147.393 512.136 148.716L512.905 144.495H516.838L512.691 167.629H508.758L509.57 163.323C508.544 164.674 507.191 165.799 505.509 166.7C503.828 167.573 501.975 168.009 499.951 168.009C498.127 168.009 496.517 167.629 495.121 166.869C493.724 166.081 492.641 164.969 491.872 163.534C491.102 162.099 490.717 160.438 490.717 158.552C490.717 157.708 490.803 156.85 490.974 155.977ZM510.853 156.019C510.967 155.428 511.024 154.795 511.024 154.12C511.024 152.065 510.397 150.447 509.143 149.265C507.917 148.055 506.35 147.45 504.44 147.45C502.987 147.45 501.59 147.787 500.251 148.463C498.94 149.138 497.814 150.123 496.873 151.418C495.933 152.713 495.306 154.232 494.992 155.977C494.878 156.568 494.821 157.216 494.821 157.919C494.821 160.002 495.434 161.648 496.66 162.858C497.885 164.04 499.453 164.631 501.362 164.631C502.816 164.631 504.198 164.294 505.509 163.618C506.849 162.915 507.989 161.916 508.929 160.621C509.898 159.298 510.539 157.764 510.853 156.019Z"/>
<path d="M526.533 148.885C527.474 147.365 528.657 146.183 530.082 145.339C531.507 144.495 533.131 144.072 534.955 144.072L534.228 148.041H533.202C531.179 148.041 529.483 148.575 528.115 149.645C526.775 150.714 525.878 152.516 525.422 155.049L523.156 167.629H519.266L523.412 144.495H527.303L526.533 148.885Z"/>
<path d="M555.215 148.758C556.241 147.436 557.595 146.338 559.276 145.466C560.958 144.565 562.796 144.115 564.791 144.115C566.615 144.115 568.225 144.495 569.622 145.254C571.047 145.986 572.144 147.056 572.914 148.463C573.683 149.842 574.068 151.474 574.068 153.36C574.068 154.176 573.982 155.049 573.811 155.977C573.384 158.313 572.515 160.396 571.204 162.225C569.921 164.055 568.339 165.476 566.458 166.489C564.606 167.502 562.639 168.009 560.559 168.009C558.564 168.009 556.882 167.573 555.514 166.7C554.174 165.799 553.205 164.688 552.607 163.365L549.914 178.605H546.023L552.094 144.495H555.984L555.215 148.758ZM569.836 155.977C569.95 155.386 570.007 154.739 570.007 154.035C570.007 151.981 569.394 150.377 568.168 149.223C566.943 148.041 565.361 147.45 563.423 147.45C561.998 147.45 560.616 147.801 559.276 148.505C557.937 149.181 556.782 150.18 555.813 151.502C554.873 152.797 554.246 154.303 553.932 156.019C553.818 156.611 553.761 157.258 553.761 157.961C553.761 160.016 554.374 161.648 555.6 162.858C556.854 164.04 558.435 164.631 560.345 164.631C561.798 164.631 563.181 164.294 564.492 163.618C565.831 162.915 566.971 161.916 567.912 160.621C568.881 159.298 569.522 157.75 569.836 155.977Z"/>
<path d="M577.436 155.977C577.863 153.613 578.718 151.545 580.001 149.772C581.312 147.97 582.894 146.577 584.746 145.592C586.627 144.607 588.622 144.115 590.731 144.115C592.783 144.115 594.479 144.551 595.819 145.423C597.158 146.296 598.085 147.393 598.598 148.716L599.367 144.495H603.3L599.153 167.629H595.22L596.033 163.323C595.007 164.674 593.653 165.799 591.971 166.7C590.29 167.573 588.437 168.009 586.414 168.009C584.59 168.009 582.979 167.629 581.583 166.869C580.186 166.081 579.103 164.969 578.334 163.534C577.564 162.099 577.179 160.438 577.179 158.552C577.179 157.708 577.265 156.85 577.436 155.977ZM597.315 156.019C597.429 155.428 597.486 154.795 597.486 154.12C597.486 152.065 596.859 150.447 595.605 149.265C594.38 148.055 592.812 147.45 590.902 147.45C589.449 147.45 588.052 147.787 586.713 148.463C585.402 149.138 584.276 150.123 583.336 151.418C582.395 152.713 581.768 154.232 581.454 155.977C581.34 156.568 581.283 157.216 581.283 157.919C581.283 160.002 581.896 161.648 583.122 162.858C584.347 164.04 585.915 164.631 587.824 164.631C589.278 164.631 590.66 164.294 591.971 163.618C593.311 162.915 594.451 161.916 595.391 160.621C596.36 159.298 597.002 157.764 597.315 156.019Z"/>
<path d="M612.995 148.885C613.936 147.365 615.119 146.183 616.544 145.339C617.969 144.495 619.593 144.072 621.417 144.072L620.691 148.041H619.664C617.641 148.041 615.945 148.575 614.577 149.645C613.238 150.714 612.34 152.516 611.884 155.049L609.618 167.629H605.728L609.875 144.495H613.765L612.995 148.885Z"/>
<path d="M622.274 155.977C622.702 153.613 623.557 151.545 624.839 149.772C626.15 147.97 627.732 146.577 629.585 145.592C631.466 144.607 633.461 144.115 635.57 144.115C637.622 144.115 639.318 144.551 640.657 145.423C641.997 146.296 642.923 147.393 643.436 148.716L644.206 144.495H648.139L643.992 167.629H640.059L640.871 163.323C639.845 164.674 638.491 165.799 636.81 166.7C635.128 167.573 633.276 168.009 631.252 168.009C629.428 168.009 627.818 167.629 626.421 166.869C625.025 166.081 623.942 164.969 623.172 163.534C622.403 162.099 622.018 160.438 622.018 158.552C622.018 157.708 622.103 156.85 622.274 155.977ZM642.153 156.019C642.267 155.428 642.324 154.795 642.324 154.12C642.324 152.065 641.697 150.447 640.443 149.265C639.218 148.055 637.65 147.45 635.741 147.45C634.287 147.45 632.891 147.787 631.551 148.463C630.24 149.138 629.114 150.123 628.174 151.418C627.233 152.713 626.606 154.232 626.293 155.977C626.179 156.568 626.122 157.216 626.122 157.919C626.122 160.002 626.735 161.648 627.96 162.858C629.186 164.04 630.753 164.631 632.663 164.631C634.116 164.631 635.499 164.294 636.81 163.618C638.149 162.915 639.289 161.916 640.23 160.621C641.199 159.298 641.84 157.764 642.153 156.019Z"/>
<path d="M663.898 155.977C664.326 153.613 665.181 151.545 666.463 149.772C667.774 147.97 669.356 146.577 671.208 145.592C673.089 144.607 675.084 144.115 677.194 144.115C679.246 144.115 680.941 144.551 682.281 145.423C683.62 146.296 684.547 147.393 685.06 148.716L685.829 144.495H689.762L685.615 167.629H681.682L682.495 163.323C681.469 164.674 680.115 165.799 678.433 166.7C676.752 167.573 674.899 168.009 672.876 168.009C671.052 168.009 669.441 167.629 668.045 166.869C666.648 166.081 665.565 164.969 664.796 163.534C664.026 162.099 663.641 160.438 663.641 158.552C663.641 157.708 663.727 156.85 663.898 155.977ZM683.777 156.019C683.891 155.428 683.948 154.795 683.948 154.12C683.948 152.065 683.321 150.447 682.067 149.265C680.842 148.055 679.274 147.45 677.365 147.45C675.911 147.45 674.514 147.787 673.175 148.463C671.864 149.138 670.738 150.123 669.798 151.418C668.857 152.713 668.23 154.232 667.917 155.977C667.803 156.568 667.746 157.216 667.746 157.919C667.746 160.002 668.358 161.648 669.584 162.858C670.809 164.04 672.377 164.631 674.286 164.631C675.74 164.631 677.122 164.294 678.433 163.618C679.773 162.915 680.913 161.916 681.853 160.621C682.822 159.298 683.464 157.764 683.777 156.019Z"/>
<path d="M697.876 144.495L701.852 163.154L712.496 144.495H716.515L696.337 178.52H692.275L698.902 167.376L693.558 144.495H697.876Z"/>
<path d="M741.203 144.495L737.056 167.629H733.166L733.764 164.252C732.824 165.434 731.627 166.348 730.173 166.996C728.719 167.643 727.209 167.967 725.641 167.967C723.19 167.967 721.224 167.319 719.742 166.025C718.288 164.702 717.561 162.816 717.561 160.368C717.561 159.749 717.633 158.975 717.775 158.046L720.212 144.495H724.06L721.751 157.539C721.637 158.13 721.58 158.749 721.58 159.397C721.58 161.114 722.05 162.422 722.991 163.323C723.96 164.195 725.299 164.631 727.009 164.631C729.061 164.631 730.8 163.998 732.225 162.732C733.679 161.465 734.605 159.622 735.004 157.202V157.328L737.312 144.495H741.203Z"/>
<path d="M744.223 155.977C744.651 153.613 745.506 151.545 746.788 149.772C748.099 147.97 749.695 146.577 751.576 145.592C753.457 144.607 755.452 144.115 757.561 144.115C759.357 144.115 760.967 144.537 762.392 145.381C763.817 146.197 764.829 147.281 765.427 148.632L767.608 136.389H771.541L765.94 167.629H762.007L762.82 163.281C761.822 164.66 760.483 165.799 758.801 166.7C757.12 167.573 755.267 168.009 753.243 168.009C751.419 168.009 749.809 167.629 748.413 166.869C747.016 166.081 745.919 164.969 745.121 163.534C744.351 162.099 743.966 160.438 743.966 158.552C743.966 157.708 744.052 156.85 744.223 155.977ZM764.102 156.019C764.216 155.428 764.273 154.795 764.273 154.12C764.273 152.065 763.646 150.447 762.392 149.265C761.167 148.055 759.599 147.45 757.69 147.45C756.236 147.45 754.839 147.787 753.5 148.463C752.189 149.138 751.063 150.123 750.123 151.418C749.182 152.713 748.555 154.232 748.242 155.977C748.128 156.568 748.071 157.216 748.071 157.919C748.071 160.002 748.683 161.648 749.909 162.858C751.134 164.04 752.702 164.631 754.611 164.631C756.065 164.631 757.447 164.294 758.758 163.618C760.098 162.915 761.238 161.916 762.178 160.621C763.147 159.298 763.789 157.764 764.102 156.019Z"/>
<path d="M773.113 155.977C773.541 153.613 774.396 151.545 775.678 149.772C776.989 147.97 778.571 146.577 780.424 145.592C782.305 144.607 784.3 144.115 786.409 144.115C788.461 144.115 790.157 144.551 791.496 145.423C792.836 146.296 793.762 147.393 794.275 148.716L795.045 144.495H798.978L794.831 167.629H790.898L791.71 163.323C790.684 164.674 789.33 165.799 787.649 166.7C785.967 167.573 784.115 168.009 782.091 168.009C780.267 168.009 778.657 167.629 777.26 166.869C775.864 166.081 774.781 164.969 774.011 163.534C773.242 162.099 772.857 160.438 772.857 158.552C772.857 157.708 772.942 156.85 773.113 155.977ZM792.992 156.019C793.106 155.428 793.164 154.795 793.164 154.12C793.164 152.065 792.536 150.447 791.282 149.265C790.057 148.055 788.489 147.45 786.58 147.45C785.126 147.45 783.73 147.787 782.39 148.463C781.079 149.138 779.953 150.123 779.013 151.418C778.072 152.713 777.445 154.232 777.132 155.977C777.018 156.568 776.961 157.216 776.961 157.919C776.961 160.002 777.574 161.648 778.799 162.858C780.025 164.04 781.592 164.631 783.502 164.631C784.955 164.631 786.338 164.294 787.649 163.618C788.988 162.915 790.128 161.916 791.069 160.621C792.038 159.298 792.679 157.764 792.992 156.019Z"/>
<path d="M808.673 148.885C809.613 147.365 810.796 146.183 812.221 145.339C813.646 144.495 815.271 144.072 817.095 144.072L816.368 148.041H815.342C813.318 148.041 811.623 148.575 810.255 149.645C808.915 150.714 808.017 152.516 807.561 155.049L805.295 167.629H801.405L805.552 144.495H809.442L808.673 148.885Z"/>
<path d="M818.55 167.882C817.895 167.882 817.353 167.685 816.926 167.291C816.527 166.897 816.327 166.376 816.327 165.729C816.327 164.885 816.641 164.167 817.268 163.576C817.895 162.957 818.636 162.647 819.491 162.647C820.146 162.647 820.674 162.844 821.073 163.238C821.472 163.632 821.671 164.153 821.671 164.8C821.671 165.645 821.358 166.376 820.73 166.996C820.103 167.587 819.377 167.882 818.55 167.882Z"/>
</mask>
<path d="M335.807 152.896C336.32 150.025 337.431 147.45 339.141 145.17C340.88 142.862 342.989 141.061 345.469 139.766C347.977 138.472 350.599 137.824 353.335 137.824C356.584 137.824 359.277 138.598 361.415 140.146C363.581 141.694 364.977 143.889 365.604 146.732H360.944C360.431 145.015 359.477 143.692 358.08 142.764C356.684 141.807 354.902 141.328 352.736 141.328C350.656 141.328 348.703 141.807 346.879 142.764C345.084 143.692 343.559 145.043 342.305 146.816C341.051 148.561 340.21 150.588 339.783 152.896C339.64 153.627 339.569 154.472 339.569 155.428C339.569 158.187 340.381 160.382 342.006 162.014C343.659 163.618 345.853 164.42 348.589 164.42C350.756 164.42 352.708 163.956 354.446 163.027C356.185 162.099 357.61 160.776 358.721 159.059H363.381C361.757 161.873 359.591 164.055 356.883 165.602C354.204 167.122 351.24 167.882 347.991 167.882C345.568 167.882 343.417 167.39 341.536 166.405C339.655 165.391 338.187 163.984 337.132 162.183C336.078 160.354 335.55 158.257 335.55 155.893C335.55 154.908 335.636 153.909 335.807 152.896Z" fill="#1A67FE"/>
<path d="M377.936 168.009C375.97 168.009 374.231 167.615 372.721 166.827C371.239 166.011 370.084 164.885 369.258 163.449C368.431 161.986 368.018 160.297 368.018 158.384C368.018 155.766 368.631 153.374 369.856 151.207C371.082 149.012 372.763 147.281 374.901 146.014C377.067 144.748 379.475 144.115 382.126 144.115C384.092 144.115 385.831 144.523 387.342 145.339C388.881 146.127 390.063 147.253 390.89 148.716C391.745 150.151 392.172 151.84 392.172 153.782C392.172 156.399 391.545 158.792 390.291 160.959C389.037 163.126 387.327 164.843 385.161 166.109C382.995 167.376 380.587 168.009 377.936 168.009ZM378.407 164.758C380.259 164.758 381.926 164.266 383.408 163.281C384.89 162.267 386.045 160.945 386.871 159.312C387.726 157.652 388.154 155.879 388.154 153.993C388.154 151.854 387.527 150.222 386.273 149.096C385.019 147.942 383.451 147.365 381.57 147.365C379.718 147.365 378.065 147.872 376.611 148.885C375.157 149.87 374.032 151.193 373.234 152.853C372.436 154.514 372.037 156.301 372.037 158.215C372.037 160.297 372.635 161.916 373.832 163.07C375.029 164.195 376.554 164.758 378.407 164.758Z" fill="#1A67FE"/>
<path d="M410.626 144.072C413.048 144.072 414.986 144.72 416.44 146.014C417.893 147.281 418.62 149.138 418.62 151.587C418.62 152.487 418.549 153.29 418.406 153.993L415.97 167.629H412.122L414.473 154.542C414.587 153.951 414.644 153.332 414.644 152.684C414.644 150.968 414.16 149.659 413.191 148.758C412.25 147.858 410.925 147.407 409.215 147.407C407.163 147.407 405.41 148.041 403.957 149.307C402.532 150.574 401.605 152.417 401.178 154.837V154.753L398.869 167.629H394.979L399.126 144.495H403.016L402.418 147.83C403.387 146.619 404.598 145.691 406.051 145.043C407.505 144.396 409.03 144.072 410.626 144.072Z" fill="#1A67FE"/>
<path d="M436.646 144.115C438.613 144.115 440.308 144.495 441.733 145.254C443.187 145.986 444.284 147.028 445.025 148.378C445.795 149.701 446.179 151.221 446.179 152.938C446.179 153.529 446.108 154.246 445.966 155.091C445.852 155.822 445.666 156.582 445.41 157.37H426.685C426.628 157.933 426.6 158.341 426.6 158.595C426.6 160.537 427.184 162.056 428.352 163.154C429.549 164.223 431.103 164.758 433.012 164.758C434.694 164.758 436.162 164.378 437.416 163.618C438.698 162.83 439.667 161.789 440.323 160.494H444.512C443.486 162.718 441.904 164.533 439.767 165.94C437.658 167.319 435.207 168.009 432.414 168.009C429.478 168.009 427.113 167.179 425.317 165.518C423.55 163.829 422.666 161.536 422.666 158.637C422.666 157.821 422.752 156.948 422.923 156.019C423.35 153.627 424.22 151.531 425.531 149.729C426.842 147.928 428.452 146.549 430.362 145.592C432.3 144.607 434.394 144.115 436.646 144.115ZM442.033 154.584C442.118 154.021 442.161 153.501 442.161 153.022C442.161 151.221 441.577 149.828 440.408 148.843C439.268 147.858 437.772 147.365 435.919 147.365C433.924 147.365 432.114 148.013 430.49 149.307C428.865 150.574 427.768 152.333 427.198 154.584H442.033Z" fill="#1A67FE"/>
<path d="M449.434 156.019C449.861 153.627 450.716 151.545 451.999 149.772C453.31 147.97 454.92 146.577 456.829 145.592C458.739 144.607 460.805 144.115 463.028 144.115C465.907 144.115 468.144 144.804 469.74 146.183C471.365 147.562 472.263 149.476 472.434 151.925H468.244C468.101 150.517 467.517 149.406 466.491 148.59C465.494 147.773 464.14 147.365 462.43 147.365C460.207 147.365 458.269 148.125 456.616 149.645C454.991 151.137 453.937 153.261 453.452 156.019C453.31 156.948 453.238 157.722 453.238 158.341C453.238 160.396 453.794 161.986 454.906 163.112C456.017 164.209 457.499 164.758 459.352 164.758C461.062 164.758 462.544 164.364 463.798 163.576C465.08 162.788 466.064 161.662 466.748 160.199H470.937C469.911 162.563 468.329 164.463 466.192 165.898C464.054 167.305 461.575 168.009 458.753 168.009C455.818 168.009 453.481 167.179 451.742 165.518C450.032 163.858 449.177 161.592 449.177 158.721C449.177 157.849 449.263 156.948 449.434 156.019Z" fill="#1A67FE"/>
<path d="M480.703 161.296C480.617 161.719 480.574 162.084 480.574 162.394C480.574 163.098 480.788 163.604 481.216 163.914C481.672 164.223 482.398 164.378 483.396 164.378H486.26L485.662 167.629H482.156C480.304 167.629 478.907 167.277 477.966 166.573C477.054 165.87 476.598 164.716 476.598 163.112C476.598 162.493 476.655 161.887 476.769 161.296L479.206 147.661H476.214L476.769 144.495H479.805L480.831 138.669H484.764L483.738 144.495H489.809L489.253 147.661H483.139L480.703 161.296Z" fill="#1A67FE"/>
<path d="M490.974 155.977C491.401 153.613 492.256 151.545 493.539 149.772C494.85 147.97 496.432 146.577 498.284 145.592C500.165 144.607 502.16 144.115 504.269 144.115C506.321 144.115 508.017 144.551 509.357 145.423C510.696 146.296 511.623 147.393 512.136 148.716L512.905 144.495H516.838L512.691 167.629H508.758L509.57 163.323C508.544 164.674 507.191 165.799 505.509 166.7C503.828 167.573 501.975 168.009 499.951 168.009C498.127 168.009 496.517 167.629 495.121 166.869C493.724 166.081 492.641 164.969 491.872 163.534C491.102 162.099 490.717 160.438 490.717 158.552C490.717 157.708 490.803 156.85 490.974 155.977ZM510.853 156.019C510.967 155.428 511.024 154.795 511.024 154.12C511.024 152.065 510.397 150.447 509.143 149.265C507.917 148.055 506.35 147.45 504.44 147.45C502.987 147.45 501.59 147.787 500.251 148.463C498.94 149.138 497.814 150.123 496.873 151.418C495.933 152.713 495.306 154.232 494.992 155.977C494.878 156.568 494.821 157.216 494.821 157.919C494.821 160.002 495.434 161.648 496.66 162.858C497.885 164.04 499.453 164.631 501.362 164.631C502.816 164.631 504.198 164.294 505.509 163.618C506.849 162.915 507.989 161.916 508.929 160.621C509.898 159.298 510.539 157.764 510.853 156.019Z" fill="#1A67FE"/>
<path d="M526.533 148.885C527.474 147.365 528.657 146.183 530.082 145.339C531.507 144.495 533.131 144.072 534.955 144.072L534.228 148.041H533.202C531.179 148.041 529.483 148.575 528.115 149.645C526.775 150.714 525.878 152.516 525.422 155.049L523.156 167.629H519.266L523.412 144.495H527.303L526.533 148.885Z" fill="#1A67FE"/>
<path d="M555.215 148.758C556.241 147.436 557.595 146.338 559.276 145.466C560.958 144.565 562.796 144.115 564.791 144.115C566.615 144.115 568.225 144.495 569.622 145.254C571.047 145.986 572.144 147.056 572.914 148.463C573.683 149.842 574.068 151.474 574.068 153.36C574.068 154.176 573.982 155.049 573.811 155.977C573.384 158.313 572.515 160.396 571.204 162.225C569.921 164.055 568.339 165.476 566.458 166.489C564.606 167.502 562.639 168.009 560.559 168.009C558.564 168.009 556.882 167.573 555.514 166.7C554.174 165.799 553.205 164.688 552.607 163.365L549.914 178.605H546.023L552.094 144.495H555.984L555.215 148.758ZM569.836 155.977C569.95 155.386 570.007 154.739 570.007 154.035C570.007 151.981 569.394 150.377 568.168 149.223C566.943 148.041 565.361 147.45 563.423 147.45C561.998 147.45 560.616 147.801 559.276 148.505C557.937 149.181 556.782 150.18 555.813 151.502C554.873 152.797 554.246 154.303 553.932 156.019C553.818 156.611 553.761 157.258 553.761 157.961C553.761 160.016 554.374 161.648 555.6 162.858C556.854 164.04 558.435 164.631 560.345 164.631C561.798 164.631 563.181 164.294 564.492 163.618C565.831 162.915 566.971 161.916 567.912 160.621C568.881 159.298 569.522 157.75 569.836 155.977Z" fill="#1A67FE"/>
<path d="M577.436 155.977C577.863 153.613 578.718 151.545 580.001 149.772C581.312 147.97 582.894 146.577 584.746 145.592C586.627 144.607 588.622 144.115 590.731 144.115C592.783 144.115 594.479 144.551 595.819 145.423C597.158 146.296 598.085 147.393 598.598 148.716L599.367 144.495H603.3L599.153 167.629H595.22L596.033 163.323C595.007 164.674 593.653 165.799 591.971 166.7C590.29 167.573 588.437 168.009 586.414 168.009C584.59 168.009 582.979 167.629 581.583 166.869C580.186 166.081 579.103 164.969 578.334 163.534C577.564 162.099 577.179 160.438 577.179 158.552C577.179 157.708 577.265 156.85 577.436 155.977ZM597.315 156.019C597.429 155.428 597.486 154.795 597.486 154.12C597.486 152.065 596.859 150.447 595.605 149.265C594.38 148.055 592.812 147.45 590.902 147.45C589.449 147.45 588.052 147.787 586.713 148.463C585.402 149.138 584.276 150.123 583.336 151.418C582.395 152.713 581.768 154.232 581.454 155.977C581.34 156.568 581.283 157.216 581.283 157.919C581.283 160.002 581.896 161.648 583.122 162.858C584.347 164.04 585.915 164.631 587.824 164.631C589.278 164.631 590.66 164.294 591.971 163.618C593.311 162.915 594.451 161.916 595.391 160.621C596.36 159.298 597.002 157.764 597.315 156.019Z" fill="#1A67FE"/>
<path d="M612.995 148.885C613.936 147.365 615.119 146.183 616.544 145.339C617.969 144.495 619.593 144.072 621.417 144.072L620.691 148.041H619.664C617.641 148.041 615.945 148.575 614.577 149.645C613.238 150.714 612.34 152.516 611.884 155.049L609.618 167.629H605.728L609.875 144.495H613.765L612.995 148.885Z" fill="#1A67FE"/>
<path d="M622.274 155.977C622.702 153.613 623.557 151.545 624.839 149.772C626.15 147.97 627.732 146.577 629.585 145.592C631.466 144.607 633.461 144.115 635.57 144.115C637.622 144.115 639.318 144.551 640.657 145.423C641.997 146.296 642.923 147.393 643.436 148.716L644.206 144.495H648.139L643.992 167.629H640.059L640.871 163.323C639.845 164.674 638.491 165.799 636.81 166.7C635.128 167.573 633.276 168.009 631.252 168.009C629.428 168.009 627.818 167.629 626.421 166.869C625.025 166.081 623.942 164.969 623.172 163.534C622.403 162.099 622.018 160.438 622.018 158.552C622.018 157.708 622.103 156.85 622.274 155.977ZM642.153 156.019C642.267 155.428 642.324 154.795 642.324 154.12C642.324 152.065 641.697 150.447 640.443 149.265C639.218 148.055 637.65 147.45 635.741 147.45C634.287 147.45 632.891 147.787 631.551 148.463C630.24 149.138 629.114 150.123 628.174 151.418C627.233 152.713 626.606 154.232 626.293 155.977C626.179 156.568 626.122 157.216 626.122 157.919C626.122 160.002 626.735 161.648 627.96 162.858C629.186 164.04 630.753 164.631 632.663 164.631C634.116 164.631 635.499 164.294 636.81 163.618C638.149 162.915 639.289 161.916 640.23 160.621C641.199 159.298 641.84 157.764 642.153 156.019Z" fill="#1A67FE"/>
<path d="M663.898 155.977C664.326 153.613 665.181 151.545 666.463 149.772C667.774 147.97 669.356 146.577 671.208 145.592C673.089 144.607 675.084 144.115 677.194 144.115C679.246 144.115 680.941 144.551 682.281 145.423C683.62 146.296 684.547 147.393 685.06 148.716L685.829 144.495H689.762L685.615 167.629H681.682L682.495 163.323C681.469 164.674 680.115 165.799 678.433 166.7C676.752 167.573 674.899 168.009 672.876 168.009C671.052 168.009 669.441 167.629 668.045 166.869C666.648 166.081 665.565 164.969 664.796 163.534C664.026 162.099 663.641 160.438 663.641 158.552C663.641 157.708 663.727 156.85 663.898 155.977ZM683.777 156.019C683.891 155.428 683.948 154.795 683.948 154.12C683.948 152.065 683.321 150.447 682.067 149.265C680.842 148.055 679.274 147.45 677.365 147.45C675.911 147.45 674.514 147.787 673.175 148.463C671.864 149.138 670.738 150.123 669.798 151.418C668.857 152.713 668.23 154.232 667.917 155.977C667.803 156.568 667.746 157.216 667.746 157.919C667.746 160.002 668.358 161.648 669.584 162.858C670.809 164.04 672.377 164.631 674.286 164.631C675.74 164.631 677.122 164.294 678.433 163.618C679.773 162.915 680.913 161.916 681.853 160.621C682.822 159.298 683.464 157.764 683.777 156.019Z" fill="#1A67FE"/>
<path d="M697.876 144.495L701.852 163.154L712.496 144.495H716.515L696.337 178.52H692.275L698.902 167.376L693.558 144.495H697.876Z" fill="#1A67FE"/>
<path d="M741.203 144.495L737.056 167.629H733.166L733.764 164.252C732.824 165.434 731.627 166.348 730.173 166.996C728.719 167.643 727.209 167.967 725.641 167.967C723.19 167.967 721.224 167.319 719.742 166.025C718.288 164.702 717.561 162.816 717.561 160.368C717.561 159.749 717.633 158.975 717.775 158.046L720.212 144.495H724.06L721.751 157.539C721.637 158.13 721.58 158.749 721.58 159.397C721.58 161.114 722.05 162.422 722.991 163.323C723.96 164.195 725.299 164.631 727.009 164.631C729.061 164.631 730.8 163.998 732.225 162.732C733.679 161.465 734.605 159.622 735.004 157.202V157.328L737.312 144.495H741.203Z" fill="#1A67FE"/>
<path d="M744.223 155.977C744.651 153.613 745.506 151.545 746.788 149.772C748.099 147.97 749.695 146.577 751.576 145.592C753.457 144.607 755.452 144.115 757.561 144.115C759.357 144.115 760.967 144.537 762.392 145.381C763.817 146.197 764.829 147.281 765.427 148.632L767.608 136.389H771.541L765.94 167.629H762.007L762.82 163.281C761.822 164.66 760.483 165.799 758.801 166.7C757.12 167.573 755.267 168.009 753.243 168.009C751.419 168.009 749.809 167.629 748.413 166.869C747.016 166.081 745.919 164.969 745.121 163.534C744.351 162.099 743.966 160.438 743.966 158.552C743.966 157.708 744.052 156.85 744.223 155.977ZM764.102 156.019C764.216 155.428 764.273 154.795 764.273 154.12C764.273 152.065 763.646 150.447 762.392 149.265C761.167 148.055 759.599 147.45 757.69 147.45C756.236 147.45 754.839 147.787 753.5 148.463C752.189 149.138 751.063 150.123 750.123 151.418C749.182 152.713 748.555 154.232 748.242 155.977C748.128 156.568 748.071 157.216 748.071 157.919C748.071 160.002 748.683 161.648 749.909 162.858C751.134 164.04 752.702 164.631 754.611 164.631C756.065 164.631 757.447 164.294 758.758 163.618C760.098 162.915 761.238 161.916 762.178 160.621C763.147 159.298 763.789 157.764 764.102 156.019Z" fill="#1A67FE"/>
<path d="M773.113 155.977C773.541 153.613 774.396 151.545 775.678 149.772C776.989 147.97 778.571 146.577 780.424 145.592C782.305 144.607 784.3 144.115 786.409 144.115C788.461 144.115 790.157 144.551 791.496 145.423C792.836 146.296 793.762 147.393 794.275 148.716L795.045 144.495H798.978L794.831 167.629H790.898L791.71 163.323C790.684 164.674 789.33 165.799 787.649 166.7C785.967 167.573 784.115 168.009 782.091 168.009C780.267 168.009 778.657 167.629 777.26 166.869C775.864 166.081 774.781 164.969 774.011 163.534C773.242 162.099 772.857 160.438 772.857 158.552C772.857 157.708 772.942 156.85 773.113 155.977ZM792.992 156.019C793.106 155.428 793.164 154.795 793.164 154.12C793.164 152.065 792.536 150.447 791.282 149.265C790.057 148.055 788.489 147.45 786.58 147.45C785.126 147.45 783.73 147.787 782.39 148.463C781.079 149.138 779.953 150.123 779.013 151.418C778.072 152.713 777.445 154.232 777.132 155.977C777.018 156.568 776.961 157.216 776.961 157.919C776.961 160.002 777.574 161.648 778.799 162.858C780.025 164.04 781.592 164.631 783.502 164.631C784.955 164.631 786.338 164.294 787.649 163.618C788.988 162.915 790.128 161.916 791.069 160.621C792.038 159.298 792.679 157.764 792.992 156.019Z" fill="#1A67FE"/>
<path d="M808.673 148.885C809.613 147.365 810.796 146.183 812.221 145.339C813.646 144.495 815.271 144.072 817.095 144.072L816.368 148.041H815.342C813.318 148.041 811.623 148.575 810.255 149.645C808.915 150.714 808.017 152.516 807.561 155.049L805.295 167.629H801.405L805.552 144.495H809.442L808.673 148.885Z" fill="#1A67FE"/>
<path d="M818.55 167.882C817.895 167.882 817.353 167.685 816.926 167.291C816.527 166.897 816.327 166.376 816.327 165.729C816.327 164.885 816.641 164.167 817.268 163.576C817.895 162.957 818.636 162.647 819.491 162.647C820.146 162.647 820.674 162.844 821.073 163.238C821.472 163.632 821.671 164.153 821.671 164.8C821.671 165.645 821.358 166.376 820.73 166.996C820.103 167.587 819.377 167.882 818.55 167.882Z" fill="#1A67FE"/>
<path d="M335.807 152.896C336.32 150.025 337.431 147.45 339.141 145.17C340.88 142.862 342.989 141.061 345.469 139.766C347.977 138.472 350.599 137.824 353.335 137.824C356.584 137.824 359.277 138.598 361.415 140.146C363.581 141.694 364.977 143.889 365.604 146.732H360.944C360.431 145.015 359.477 143.692 358.08 142.764C356.684 141.807 354.902 141.328 352.736 141.328C350.656 141.328 348.703 141.807 346.879 142.764C345.084 143.692 343.559 145.043 342.305 146.816C341.051 148.561 340.21 150.588 339.783 152.896C339.64 153.627 339.569 154.472 339.569 155.428C339.569 158.187 340.381 160.382 342.006 162.014C343.659 163.618 345.853 164.42 348.589 164.42C350.756 164.42 352.708 163.956 354.446 163.027C356.185 162.099 357.61 160.776 358.721 159.059H363.381C361.757 161.873 359.591 164.055 356.883 165.602C354.204 167.122 351.24 167.882 347.991 167.882C345.568 167.882 343.417 167.39 341.536 166.405C339.655 165.391 338.187 163.984 337.132 162.183C336.078 160.354 335.55 158.257 335.55 155.893C335.55 154.908 335.636 153.909 335.807 152.896Z" stroke="#1A67FE" stroke-width="2" mask="url(#path-1-outside-1_460_2220)"/>
<path d="M377.936 168.009C375.97 168.009 374.231 167.615 372.721 166.827C371.239 166.011 370.084 164.885 369.258 163.449C368.431 161.986 368.018 160.297 368.018 158.384C368.018 155.766 368.631 153.374 369.856 151.207C371.082 149.012 372.763 147.281 374.901 146.014C377.067 144.748 379.475 144.115 382.126 144.115C384.092 144.115 385.831 144.523 387.342 145.339C388.881 146.127 390.063 147.253 390.89 148.716C391.745 150.151 392.172 151.84 392.172 153.782C392.172 156.399 391.545 158.792 390.291 160.959C389.037 163.126 387.327 164.843 385.161 166.109C382.995 167.376 380.587 168.009 377.936 168.009ZM378.407 164.758C380.259 164.758 381.926 164.266 383.408 163.281C384.89 162.267 386.045 160.945 386.871 159.312C387.726 157.652 388.154 155.879 388.154 153.993C388.154 151.854 387.527 150.222 386.273 149.096C385.019 147.942 383.451 147.365 381.57 147.365C379.718 147.365 378.065 147.872 376.611 148.885C375.157 149.87 374.032 151.193 373.234 152.853C372.436 154.514 372.037 156.301 372.037 158.215C372.037 160.297 372.635 161.916 373.832 163.07C375.029 164.195 376.554 164.758 378.407 164.758Z" stroke="#1A67FE" stroke-width="2" mask="url(#path-1-outside-1_460_2220)"/>
<path d="M410.626 144.072C413.048 144.072 414.986 144.72 416.44 146.014C417.893 147.281 418.62 149.138 418.62 151.587C418.62 152.487 418.549 153.29 418.406 153.993L415.97 167.629H412.122L414.473 154.542C414.587 153.951 414.644 153.332 414.644 152.684C414.644 150.968 414.16 149.659 413.191 148.758C412.25 147.858 410.925 147.407 409.215 147.407C407.163 147.407 405.41 148.041 403.957 149.307C402.532 150.574 401.605 152.417 401.178 154.837V154.753L398.869 167.629H394.979L399.126 144.495H403.016L402.418 147.83C403.387 146.619 404.598 145.691 406.051 145.043C407.505 144.396 409.03 144.072 410.626 144.072Z" stroke="#1A67FE" stroke-width="2" mask="url(#path-1-outside-1_460_2220)"/>
<path d="M436.646 144.115C438.613 144.115 440.308 144.495 441.733 145.254C443.187 145.986 444.284 147.028 445.025 148.378C445.795 149.701 446.179 151.221 446.179 152.938C446.179 153.529 446.108 154.246 445.966 155.091C445.852 155.822 445.666 156.582 445.41 157.37H426.685C426.628 157.933 426.6 158.341 426.6 158.595C426.6 160.537 427.184 162.056 428.352 163.154C429.549 164.223 431.103 164.758 433.012 164.758C434.694 164.758 436.162 164.378 437.416 163.618C438.698 162.83 439.667 161.789 440.323 160.494H444.512C443.486 162.718 441.904 164.533 439.767 165.94C437.658 167.319 435.207 168.009 432.414 168.009C429.478 168.009 427.113 167.179 425.317 165.518C423.55 163.829 422.666 161.536 422.666 158.637C422.666 157.821 422.752 156.948 422.923 156.019C423.35 153.627 424.22 151.531 425.531 149.729C426.842 147.928 428.452 146.549 430.362 145.592C432.3 144.607 434.394 144.115 436.646 144.115ZM442.033 154.584C442.118 154.021 442.161 153.501 442.161 153.022C442.161 151.221 441.577 149.828 440.408 148.843C439.268 147.858 437.772 147.365 435.919 147.365C433.924 147.365 432.114 148.013 430.49 149.307C428.865 150.574 427.768 152.333 427.198 154.584H442.033Z" stroke="#1A67FE" stroke-width="2" mask="url(#path-1-outside-1_460_2220)"/>
<path d="M449.434 156.019C449.861 153.627 450.716 151.545 451.999 149.772C453.31 147.97 454.92 146.577 456.829 145.592C458.739 144.607 460.805 144.115 463.028 144.115C465.907 144.115 468.144 144.804 469.74 146.183C471.365 147.562 472.263 149.476 472.434 151.925H468.244C468.101 150.517 467.517 149.406 466.491 148.59C465.494 147.773 464.14 147.365 462.43 147.365C460.207 147.365 458.269 148.125 456.616 149.645C454.991 151.137 453.937 153.261 453.452 156.019C453.31 156.948 453.238 157.722 453.238 158.341C453.238 160.396 453.794 161.986 454.906 163.112C456.017 164.209 457.499 164.758 459.352 164.758C461.062 164.758 462.544 164.364 463.798 163.576C465.08 162.788 466.064 161.662 466.748 160.199H470.937C469.911 162.563 468.329 164.463 466.192 165.898C464.054 167.305 461.575 168.009 458.753 168.009C455.818 168.009 453.481 167.179 451.742 165.518C450.032 163.858 449.177 161.592 449.177 158.721C449.177 157.849 449.263 156.948 449.434 156.019Z" stroke="#1A67FE" stroke-width="2" mask="url(#path-1-outside-1_460_2220)"/>
<path d="M480.703 161.296C480.617 161.719 480.574 162.084 480.574 162.394C480.574 163.098 480.788 163.604 481.216 163.914C481.672 164.223 482.398 164.378 483.396 164.378H486.26L485.662 167.629H482.156C480.304 167.629 478.907 167.277 477.966 166.573C477.054 165.87 476.598 164.716 476.598 163.112C476.598 162.493 476.655 161.887 476.769 161.296L479.206 147.661H476.214L476.769 144.495H479.805L480.831 138.669H484.764L483.738 144.495H489.809L489.253 147.661H483.139L480.703 161.296Z" stroke="#1A67FE" stroke-width="2" mask="url(#path-1-outside-1_460_2220)"/>
<path d="M490.974 155.977C491.401 153.613 492.256 151.545 493.539 149.772C494.85 147.97 496.432 146.577 498.284 145.592C500.165 144.607 502.16 144.115 504.269 144.115C506.321 144.115 508.017 144.551 509.357 145.423C510.696 146.296 511.623 147.393 512.136 148.716L512.905 144.495H516.838L512.691 167.629H508.758L509.57 163.323C508.544 164.674 507.191 165.799 505.509 166.7C503.828 167.573 501.975 168.009 499.951 168.009C498.127 168.009 496.517 167.629 495.121 166.869C493.724 166.081 492.641 164.969 491.872 163.534C491.102 162.099 490.717 160.438 490.717 158.552C490.717 157.708 490.803 156.85 490.974 155.977ZM510.853 156.019C510.967 155.428 511.024 154.795 511.024 154.12C511.024 152.065 510.397 150.447 509.143 149.265C507.917 148.055 506.35 147.45 504.44 147.45C502.987 147.45 501.59 147.787 500.251 148.463C498.94 149.138 497.814 150.123 496.873 151.418C495.933 152.713 495.306 154.232 494.992 155.977C494.878 156.568 494.821 157.216 494.821 157.919C494.821 160.002 495.434 161.648 496.66 162.858C497.885 164.04 499.453 164.631 501.362 164.631C502.816 164.631 504.198 164.294 505.509 163.618C506.849 162.915 507.989 161.916 508.929 160.621C509.898 159.298 510.539 157.764 510.853 156.019Z" stroke="#1A67FE" stroke-width="2" mask="url(#path-1-outside-1_460_2220)"/>
<path d="M526.533 148.885C527.474 147.365 528.657 146.183 530.082 145.339C531.507 144.495 533.131 144.072 534.955 144.072L534.228 148.041H533.202C531.179 148.041 529.483 148.575 528.115 149.645C526.775 150.714 525.878 152.516 525.422 155.049L523.156 167.629H519.266L523.412 144.495H527.303L526.533 148.885Z" stroke="#1A67FE" stroke-width="2" mask="url(#path-1-outside-1_460_2220)"/>
<path d="M555.215 148.758C556.241 147.436 557.595 146.338 559.276 145.466C560.958 144.565 562.796 144.115 564.791 144.115C566.615 144.115 568.225 144.495 569.622 145.254C571.047 145.986 572.144 147.056 572.914 148.463C573.683 149.842 574.068 151.474 574.068 153.36C574.068 154.176 573.982 155.049 573.811 155.977C573.384 158.313 572.515 160.396 571.204 162.225C569.921 164.055 568.339 165.476 566.458 166.489C564.606 167.502 562.639 168.009 560.559 168.009C558.564 168.009 556.882 167.573 555.514 166.7C554.174 165.799 553.205 164.688 552.607 163.365L549.914 178.605H546.023L552.094 144.495H555.984L555.215 148.758ZM569.836 155.977C569.95 155.386 570.007 154.739 570.007 154.035C570.007 151.981 569.394 150.377 568.168 149.223C566.943 148.041 565.361 147.45 563.423 147.45C561.998 147.45 560.616 147.801 559.276 148.505C557.937 149.181 556.782 150.18 555.813 151.502C554.873 152.797 554.246 154.303 553.932 156.019C553.818 156.611 553.761 157.258 553.761 157.961C553.761 160.016 554.374 161.648 555.6 162.858C556.854 164.04 558.435 164.631 560.345 164.631C561.798 164.631 563.181 164.294 564.492 163.618C565.831 162.915 566.971 161.916 567.912 160.621C568.881 159.298 569.522 157.75 569.836 155.977Z" stroke="#1A67FE" stroke-width="2" mask="url(#path-1-outside-1_460_2220)"/>
<path d="M577.436 155.977C577.863 153.613 578.718 151.545 580.001 149.772C581.312 147.97 582.894 146.577 584.746 145.592C586.627 144.607 588.622 144.115 590.731 144.115C592.783 144.115 594.479 144.551 595.819 145.423C597.158 146.296 598.085 147.393 598.598 148.716L599.367 144.495H603.3L599.153 167.629H595.22L596.033 163.323C595.007 164.674 593.653 165.799 591.971 166.7C590.29 167.573 588.437 168.009 586.414 168.009C584.59 168.009 582.979 167.629 581.583 166.869C580.186 166.081 579.103 164.969 578.334 163.534C577.564 162.099 577.179 160.438 577.179 158.552C577.179 157.708 577.265 156.85 577.436 155.977ZM597.315 156.019C597.429 155.428 597.486 154.795 597.486 154.12C597.486 152.065 596.859 150.447 595.605 149.265C594.38 148.055 592.812 147.45 590.902 147.45C589.449 147.45 588.052 147.787 586.713 148.463C585.402 149.138 584.276 150.123 583.336 151.418C582.395 152.713 581.768 154.232 581.454 155.977C581.34 156.568 581.283 157.216 581.283 157.919C581.283 160.002 581.896 161.648 583.122 162.858C584.347 164.04 585.915 164.631 587.824 164.631C589.278 164.631 590.66 164.294 591.971 163.618C593.311 162.915 594.451 161.916 595.391 160.621C596.36 159.298 597.002 157.764 597.315 156.019Z" stroke="#1A67FE" stroke-width="2" mask="url(#path-1-outside-1_460_2220)"/>
<path d="M612.995 148.885C613.936 147.365 615.119 146.183 616.544 145.339C617.969 144.495 619.593 144.072 621.417 144.072L620.691 148.041H619.664C617.641 148.041 615.945 148.575 614.577 149.645C613.238 150.714 612.34 152.516 611.884 155.049L609.618 167.629H605.728L609.875 144.495H613.765L612.995 148.885Z" stroke="#1A67FE" stroke-width="2" mask="url(#path-1-outside-1_460_2220)"/>
<path d="M622.274 155.977C622.702 153.613 623.557 151.545 624.839 149.772C626.15 147.97 627.732 146.577 629.585 145.592C631.466 144.607 633.461 144.115 635.57 144.115C637.622 144.115 639.318 144.551 640.657 145.423C641.997 146.296 642.923 147.393 643.436 148.716L644.206 144.495H648.139L643.992 167.629H640.059L640.871 163.323C639.845 164.674 638.491 165.799 636.81 166.7C635.128 167.573 633.276 168.009 631.252 168.009C629.428 168.009 627.818 167.629 626.421 166.869C625.025 166.081 623.942 164.969 623.172 163.534C622.403 162.099 622.018 160.438 622.018 158.552C622.018 157.708 622.103 156.85 622.274 155.977ZM642.153 156.019C642.267 155.428 642.324 154.795 642.324 154.12C642.324 152.065 641.697 150.447 640.443 149.265C639.218 148.055 637.65 147.45 635.741 147.45C634.287 147.45 632.891 147.787 631.551 148.463C630.24 149.138 629.114 150.123 628.174 151.418C627.233 152.713 626.606 154.232 626.293 155.977C626.179 156.568 626.122 157.216 626.122 157.919C626.122 160.002 626.735 161.648 627.96 162.858C629.186 164.04 630.753 164.631 632.663 164.631C634.116 164.631 635.499 164.294 636.81 163.618C638.149 162.915 639.289 161.916 640.23 160.621C641.199 159.298 641.84 157.764 642.153 156.019Z" stroke="#1A67FE" stroke-width="2" mask="url(#path-1-outside-1_460_2220)"/>
<path d="M663.898 155.977C664.326 153.613 665.181 151.545 666.463 149.772C667.774 147.97 669.356 146.577 671.208 145.592C673.089 144.607 675.084 144.115 677.194 144.115C679.246 144.115 680.941 144.551 682.281 145.423C683.62 146.296 684.547 147.393 685.06 148.716L685.829 144.495H689.762L685.615 167.629H681.682L682.495 163.323C681.469 164.674 680.115 165.799 678.433 166.7C676.752 167.573 674.899 168.009 672.876 168.009C671.052 168.009 669.441 167.629 668.045 166.869C666.648 166.081 665.565 164.969 664.796 163.534C664.026 162.099 663.641 160.438 663.641 158.552C663.641 157.708 663.727 156.85 663.898 155.977ZM683.777 156.019C683.891 155.428 683.948 154.795 683.948 154.12C683.948 152.065 683.321 150.447 682.067 149.265C680.842 148.055 679.274 147.45 677.365 147.45C675.911 147.45 674.514 147.787 673.175 148.463C671.864 149.138 670.738 150.123 669.798 151.418C668.857 152.713 668.23 154.232 667.917 155.977C667.803 156.568 667.746 157.216 667.746 157.919C667.746 160.002 668.358 161.648 669.584 162.858C670.809 164.04 672.377 164.631 674.286 164.631C675.74 164.631 677.122 164.294 678.433 163.618C679.773 162.915 680.913 161.916 681.853 160.621C682.822 159.298 683.464 157.764 683.777 156.019Z" stroke="#1A67FE" stroke-width="2" mask="url(#path-1-outside-1_460_2220)"/>
<path d="M697.876 144.495L701.852 163.154L712.496 144.495H716.515L696.337 178.52H692.275L698.902 167.376L693.558 144.495H697.876Z" stroke="#1A67FE" stroke-width="2" mask="url(#path-1-outside-1_460_2220)"/>
<path d="M741.203 144.495L737.056 167.629H733.166L733.764 164.252C732.824 165.434 731.627 166.348 730.173 166.996C728.719 167.643 727.209 167.967 725.641 167.967C723.19 167.967 721.224 167.319 719.742 166.025C718.288 164.702 717.561 162.816 717.561 160.368C717.561 159.749 717.633 158.975 717.775 158.046L720.212 144.495H724.06L721.751 157.539C721.637 158.13 721.58 158.749 721.58 159.397C721.58 161.114 722.05 162.422 722.991 163.323C723.96 164.195 725.299 164.631 727.009 164.631C729.061 164.631 730.8 163.998 732.225 162.732C733.679 161.465 734.605 159.622 735.004 157.202V157.328L737.312 144.495H741.203Z" stroke="#1A67FE" stroke-width="2" mask="url(#path-1-outside-1_460_2220)"/>
<path d="M744.223 155.977C744.651 153.613 745.506 151.545 746.788 149.772C748.099 147.97 749.695 146.577 751.576 145.592C753.457 144.607 755.452 144.115 757.561 144.115C759.357 144.115 760.967 144.537 762.392 145.381C763.817 146.197 764.829 147.281 765.427 148.632L767.608 136.389H771.541L765.94 167.629H762.007L762.82 163.281C761.822 164.66 760.483 165.799 758.801 166.7C757.12 167.573 755.267 168.009 753.243 168.009C751.419 168.009 749.809 167.629 748.413 166.869C747.016 166.081 745.919 164.969 745.121 163.534C744.351 162.099 743.966 160.438 743.966 158.552C743.966 157.708 744.052 156.85 744.223 155.977ZM764.102 156.019C764.216 155.428 764.273 154.795 764.273 154.12C764.273 152.065 763.646 150.447 762.392 149.265C761.167 148.055 759.599 147.45 757.69 147.45C756.236 147.45 754.839 147.787 753.5 148.463C752.189 149.138 751.063 150.123 750.123 151.418C749.182 152.713 748.555 154.232 748.242 155.977C748.128 156.568 748.071 157.216 748.071 157.919C748.071 160.002 748.683 161.648 749.909 162.858C751.134 164.04 752.702 164.631 754.611 164.631C756.065 164.631 757.447 164.294 758.758 163.618C760.098 162.915 761.238 161.916 762.178 160.621C763.147 159.298 763.789 157.764 764.102 156.019Z" stroke="#1A67FE" stroke-width="2" mask="url(#path-1-outside-1_460_2220)"/>
<path d="M773.113 155.977C773.541 153.613 774.396 151.545 775.678 149.772C776.989 147.97 778.571 146.577 780.424 145.592C782.305 144.607 784.3 144.115 786.409 144.115C788.461 144.115 790.157 144.551 791.496 145.423C792.836 146.296 793.762 147.393 794.275 148.716L795.045 144.495H798.978L794.831 167.629H790.898L791.71 163.323C790.684 164.674 789.33 165.799 787.649 166.7C785.967 167.573 784.115 168.009 782.091 168.009C780.267 168.009 778.657 167.629 777.26 166.869C775.864 166.081 774.781 164.969 774.011 163.534C773.242 162.099 772.857 160.438 772.857 158.552C772.857 157.708 772.942 156.85 773.113 155.977ZM792.992 156.019C793.106 155.428 793.164 154.795 793.164 154.12C793.164 152.065 792.536 150.447 791.282 149.265C790.057 148.055 788.489 147.45 786.58 147.45C785.126 147.45 783.73 147.787 782.39 148.463C781.079 149.138 779.953 150.123 779.013 151.418C778.072 152.713 777.445 154.232 777.132 155.977C777.018 156.568 776.961 157.216 776.961 157.919C776.961 160.002 777.574 161.648 778.799 162.858C780.025 164.04 781.592 164.631 783.502 164.631C784.955 164.631 786.338 164.294 787.649 163.618C788.988 162.915 790.128 161.916 791.069 160.621C792.038 159.298 792.679 157.764 792.992 156.019Z" stroke="#1A67FE" stroke-width="2" mask="url(#path-1-outside-1_460_2220)"/>
<path d="M808.673 148.885C809.613 147.365 810.796 146.183 812.221 145.339C813.646 144.495 815.271 144.072 817.095 144.072L816.368 148.041H815.342C813.318 148.041 811.623 148.575 810.255 149.645C808.915 150.714 808.017 152.516 807.561 155.049L805.295 167.629H801.405L805.552 144.495H809.442L808.673 148.885Z" stroke="#1A67FE" stroke-width="2" mask="url(#path-1-outside-1_460_2220)"/>
<path d="M818.55 167.882C817.895 167.882 817.353 167.685 816.926 167.291C816.527 166.897 816.327 166.376 816.327 165.729C816.327 164.885 816.641 164.167 817.268 163.576C817.895 162.957 818.636 162.647 819.491 162.647C820.146 162.647 820.674 162.844 821.073 163.238C821.472 163.632 821.671 164.153 821.671 164.8C821.671 165.645 821.358 166.376 820.73 166.996C820.103 167.587 819.377 167.882 818.55 167.882Z" stroke="#1A67FE" stroke-width="2" mask="url(#path-1-outside-1_460_2220)"/>
<path d="M302.231 30.1909C309.016 30.1909 315.071 31.6229 320.353 34.5308C325.744 37.3388 329.906 41.4505 332.817 46.8354L333.087 47.3345C335.823 52.5192 337.164 58.5677 337.164 65.4312C337.164 68.5124 336.844 71.787 336.214 75.2515C334.637 83.9785 331.424 91.7856 326.565 98.6509C321.818 105.503 315.948 110.85 308.958 114.663C302.066 118.478 294.732 120.392 286.978 120.392C279.565 120.392 273.207 118.748 267.985 115.375L267.969 115.366L267.955 115.356C264.255 112.837 261.283 109.863 259.061 106.436L250.093 157.82L249.877 159.062H232.809L233.119 157.302L254.996 32.8179L255.214 31.5776H272.285L271.97 33.3403L270.137 43.6216C273.373 40.401 277.218 37.626 281.659 35.2925C287.943 31.8878 294.81 30.1909 302.231 30.1909ZM161.04 30.1909C168.308 30.191 174.664 31.6113 180.054 34.5142L180.566 34.7798C185.808 37.5659 189.818 41.4864 192.552 46.5317C195.461 51.6073 196.896 57.4079 196.896 63.8901C196.896 66.1573 196.627 68.8646 196.105 71.9946C195.681 74.746 194.994 77.5901 194.05 80.5259L193.716 81.5669H126.507C126.39 82.9077 126.334 83.8905 126.334 84.5347C126.334 91.2994 128.33 96.4125 132.171 100.074C136.158 103.675 141.37 105.529 147.944 105.529C153.767 105.529 158.777 104.199 163.028 101.59C167.418 98.8568 170.714 95.2636 172.947 90.7974L173.362 89.9683H191.719L190.753 92.0903C186.935 100.469 181.044 107.306 173.118 112.59L173.114 112.593C165.242 117.805 156.115 120.392 145.787 120.392C134.905 120.392 125.987 117.266 119.186 110.897L119.169 110.879C112.453 104.38 109.16 95.5895 109.16 84.689C109.16 81.6078 109.478 78.3332 110.108 74.8687C111.685 65.9411 114.898 58.0774 119.764 51.3062C124.622 44.5477 130.606 39.3518 137.713 35.7456C144.914 32.0403 152.698 30.1909 161.04 30.1909ZM240.282 1.99658L239.97 3.7583L219.788 117.767L219.568 119.005H202.502L202.813 117.244L222.996 3.23486L223.215 1.99658H240.282ZM297.301 45.3618C292.427 45.3618 287.686 46.5776 283.061 49.0376L283.049 49.0435L283.039 49.0493C278.445 51.3952 274.462 54.8738 271.095 59.5259C267.848 64.0527 265.669 69.3359 264.575 75.4028L264.573 75.4106L264.572 75.4175C264.181 77.4679 263.982 79.7352 263.982 82.2241C263.982 89.4002 266.082 94.9404 270.152 99.019C274.361 103.033 279.675 105.067 286.209 105.067C291.201 105.067 295.944 103.894 300.459 101.539C305.065 99.0863 308.998 95.6019 312.259 91.0562L312.262 91.0513C315.608 86.4266 317.839 80.9948 318.933 74.7251L318.935 74.7134L318.937 74.7026C319.328 72.6522 319.527 70.385 319.527 67.896C319.527 60.708 317.421 55.284 313.367 51.4185L313.361 51.4116L313.354 51.4058C309.255 47.4024 303.95 45.3619 297.301 45.3618ZM158.421 45.0532C151.59 45.0532 145.397 47.2879 139.796 51.8081L139.79 51.813L139.783 51.8179C134.667 55.857 131.049 61.3585 128.957 68.3989H179.14C179.323 66.8963 179.414 65.4969 179.414 64.1987C179.414 57.9736 177.437 53.3423 173.623 50.0864L173.609 50.0747C169.832 46.7696 164.818 45.0533 158.421 45.0532Z" fill="white" stroke="white" stroke-width="3"/>
<path d="M642.068 3.74219L636.116 19.3926L647.502 17.6338L649.151 17.3779L649.229 19.0459L649.731 29.8457L649.791 31.1436L648.515 31.3887L634.211 34.1348L634.197 34.1377C630.562 34.8001 627.383 35.3293 624.764 35.5254C622.201 35.7174 619.903 35.6178 618.195 34.7949C617.298 34.3626 616.549 33.7248 616.035 32.8408C615.529 31.9705 615.307 30.9606 615.289 29.8662C615.254 27.7354 615.991 25.0102 617.359 21.626L624.3 3.37109L624.649 2.45117L625.633 2.40527L640.596 1.71094L642.881 1.60449L642.068 3.74219Z" fill="#F7A238" stroke="#F7A238" stroke-width="3"/>
<path d="M534.599 32.4443C542.207 32.4443 548.627 34.0825 553.759 37.4678C557.373 39.8514 560.221 42.6994 562.273 46.0117L564.244 35.0645L564.466 33.8311H581.683L581.372 35.5918L566.427 120.02L566.208 121.259H548.971L549.301 119.483L551.212 109.221C547.997 112.478 544.184 115.3 539.782 117.688L539.774 117.692L539.765 117.697C533.476 121.002 526.558 122.645 519.039 122.646C512.249 122.646 506.19 121.211 500.905 118.299L500.895 118.294L500.885 118.288C495.6 115.268 491.497 110.999 488.594 105.516C485.69 100.029 484.26 93.7212 484.26 86.6348C484.26 83.4529 484.579 80.2242 485.212 76.9512C486.789 68.1359 489.948 60.3811 494.708 53.7168L494.71 53.7129C499.559 46.9673 505.429 41.7257 512.319 38.0156L512.328 38.0107C519.321 34.3024 526.751 32.4443 534.599 32.4443ZM694.56 32.4443C705.16 32.4443 713.617 35.0156 719.726 40.3555C725.934 45.6919 729.313 53.0763 729.952 62.3428L730.062 63.9463H711.999L711.864 62.5957C711.386 57.8217 709.455 54.1466 706.099 51.4434L706.09 51.4365L706.083 51.4297C702.833 48.737 698.33 47.3067 692.404 47.3066C684.778 47.3066 678.158 49.9322 672.473 55.2246L672.472 55.2256C666.918 60.3905 663.234 67.8136 661.528 77.6465C661.024 80.9812 660.78 83.7144 660.78 85.8643C660.78 93.092 662.704 98.4716 666.357 102.222C670.031 105.891 674.961 107.782 681.311 107.782C687.232 107.782 692.284 106.404 696.528 103.703L696.535 103.698L696.542 103.694C700.894 100.986 704.25 97.1117 706.602 92.0146L707.004 91.1426H725.337L724.441 93.2344C720.631 102.123 714.747 109.282 706.805 114.683L706.793 114.69C698.82 120.006 689.588 122.646 679.154 122.646C668.274 122.645 659.447 119.52 652.844 113.134L652.835 113.125C646.327 106.725 643.143 98.0382 643.143 87.251C643.143 83.97 643.46 80.5929 644.091 77.1221C645.667 68.2001 648.826 60.3876 653.591 53.7168L653.593 53.7129C658.449 46.9577 664.429 41.7148 671.527 38.0068C678.63 34.2965 686.315 32.4444 694.56 32.4443ZM387.699 11.6455L387.999 12.7529L410.978 97.5527L464.005 12.3525L464.445 11.6455H482.01L481.7 13.4053L462.904 120.019L462.686 121.259H445.62L445.929 119.498L458.602 47.6406L413.246 120.551L412.805 121.259H400.965L400.665 120.152L380.852 47.416L368 120.021L367.78 121.259H350.712L351.026 119.496L369.976 12.8828L370.196 11.6455H387.699ZM772.309 4.25L771.998 6.01172L765.481 42.7988C768.443 40.0652 771.875 37.837 775.768 36.1152C781.402 33.5661 787.309 32.29 793.476 32.29C802.186 32.29 809.35 34.7394 814.816 39.7617C820.351 44.7429 823.016 51.9275 823.016 61.0596C823.016 64.4129 822.754 67.4803 822.222 70.2549L822.223 70.2559L813.441 120.02L813.222 121.259H796.308L796.622 119.496L805.095 71.7363L805.096 71.7266L805.098 71.7178C805.49 69.6602 805.688 67.4948 805.688 65.2197C805.688 59.2348 804.027 54.9068 800.921 51.9834L800.906 51.9678C797.874 49.0276 793.518 47.4609 787.622 47.4609C780.574 47.4609 774.619 49.6493 769.674 54.0078L769.675 54.0088C764.855 58.3469 761.636 64.7326 760.135 73.334L760.081 73.3291L751.815 120.021L751.595 121.259H734.529L734.84 119.497L755.023 5.48828L755.243 4.25H772.309ZM535.215 47.6152C530.227 47.6152 525.431 48.7856 520.811 51.1426L519.975 51.5957C515.83 53.923 512.226 57.2045 509.165 61.4717C505.92 65.9944 503.739 71.326 502.644 77.498L502.64 77.5176C502.25 79.5678 502.05 81.8346 502.05 84.3232C502.05 91.6177 504.16 97.2118 508.236 101.288C512.337 105.288 517.59 107.32 524.123 107.32C529.115 107.32 533.859 106.147 538.374 103.792C542.979 101.34 546.912 97.8551 550.173 93.3096L550.177 93.3047C553.526 88.6761 555.754 83.2933 556.848 77.1289L556.852 77.1094C557.243 75.0557 557.442 72.8398 557.442 70.458C557.442 63.2816 555.291 57.8002 551.126 53.8252L551.102 53.8008C546.997 49.6955 541.744 47.6152 535.215 47.6152Z" fill="#1A67FE" stroke="#1A67FE" stroke-width="3"/>
<path d="M617.421 42.7898C620.165 42.5493 622.606 42.6269 624.422 43.4733C625.373 43.9169 626.167 44.5771 626.718 45.4974C627.261 46.4041 627.508 47.4649 627.542 48.6252C627.608 50.894 626.858 53.8207 625.429 57.4812L618.244 77.1263L617.905 78.0503L617.883 78.0516L615.465 84.66L615.464 84.662C613.795 89.2009 612.514 92.9605 611.748 96.04C610.974 99.1542 610.778 101.383 611.109 102.939C611.409 104.347 612.141 105.248 613.587 105.824C615.154 106.45 617.578 106.689 621.177 106.438L630.764 104.478L632.873 104.046L632.548 106.174L630.616 118.784L630.472 119.727L629.557 119.995L629.133 118.557L629.556 119.996L629.554 119.996C629.553 119.996 629.551 119.997 629.549 119.997C629.546 119.998 629.54 120 629.534 120.002C629.521 120.006 629.502 120.011 629.478 120.018C629.43 120.032 629.36 120.052 629.269 120.077C629.089 120.126 628.825 120.198 628.488 120.284C627.815 120.457 626.845 120.691 625.65 120.941C623.263 121.441 619.959 122.007 616.302 122.27C609.188 122.781 603.973 122.506 600.252 119.906C596.814 117.504 594.209 114.132 593.35 108.556C592.508 103.095 593.353 95.5934 596.5 84.88L596.514 84.8332L596.53 84.7873L599.363 77.0459L599.7 76.122L599.723 76.1207L605.621 59.9991L593.248 62.0733L591.601 62.3497L590.741 47.8087L592.014 47.5476L607.319 44.4078L607.334 44.404L607.334 44.4049C611.223 43.645 614.622 43.0352 617.421 42.7898Z" fill="#1A67FE" stroke="#1A67FE" stroke-width="3"/>
<path d="M39.6582 10.6489L31.8145 54.5737H80.4053L88.2891 9.60303L88.7246 7.12158H108.84L108.219 10.6431L89.2686 118.027L88.8311 120.505H68.7197L69.3398 116.985L77.3477 71.5122H28.8926L20.5537 118.035L20.1113 120.505H0L0.626953 116.98L19.7314 9.59619L20.1719 7.12158H40.2881L39.6582 10.6489Z" fill="white"/>
</svg>
